<svg width="1024" height="1024" viewBox="0 0 1024 1024" fill="none" xmlns="http://www.w3.org/2000/svg">
<rect x="2" y="2" width="1020" height="1020" rx="228" fill="url(#paint0_linear_36_3)"/>
<rect x="2" y="2" width="1020" height="1020" rx="228" stroke="url(#paint1_linear_36_3)" stroke-width="4"/>
<g filter="url(#filter0_ddi_36_3)">
<path d="M498.566 237.323C419.652 285.658 367 372.68 367 472C367 623.878 490.122 747 642 747C646.504 747 650.982 746.89 655.433 746.676C613.672 772.254 564.559 787 512 787C360.122 787 237 663.878 237 512C237 364.626 352.928 244.329 498.566 237.323Z" fill="#A166FF"/>
</g>
<g filter="url(#filter1_d_36_3)">
<path d="M531.969 240.695C587.184 244.643 639.885 265.282 683.057 299.865C726.229 334.449 757.825 381.335 773.64 434.285C789.456 487.234 788.742 543.735 771.592 596.269C754.443 648.803 721.671 694.879 677.638 728.364" stroke="#D4BBFF" stroke-width="6" stroke-linecap="round"/>
</g>
<defs>
<filter id="filter0_ddi_36_3" x="157" y="157.323" width="578.433" height="709.677" filterUnits="userSpaceOnUse" color-interpolation-filters="sRGB">
<feFlood flood-opacity="0" result="BackgroundImageFix"/>
<feColorMatrix in="SourceAlpha" type="matrix" values="0 0 0 0 0 0 0 0 0 0 0 0 0 0 0 0 0 0 127 0" result="hardAlpha"/>
<feOffset/>
<feGaussianBlur stdDeviation="40"/>
<feComposite in2="hardAlpha" operator="out"/>
<feColorMatrix type="matrix" values="0 0 0 0 0.631373 0 0 0 0 0.4 0 0 0 0 1 0 0 0 0.6 0"/>
<feBlend mode="normal" in2="BackgroundImageFix" result="effect1_dropShadow_36_3"/>
<feColorMatrix in="SourceAlpha" type="matrix" values="0 0 0 0 0 0 0 0 0 0 0 0 0 0 0 0 0 0 127 0" result="hardAlpha"/>
<feOffset dy="4"/>
<feGaussianBlur stdDeviation="10"/>
<feComposite in2="hardAlpha" operator="out"/>
<feColorMatrix type="matrix" values="0 0 0 0 0.631373 0 0 0 0 0.4 0 0 0 0 1 0 0 0 1 0"/>
<feBlend mode="normal" in2="effect1_dropShadow_36_3" result="effect2_dropShadow_36_3"/>
<feBlend mode="normal" in="SourceGraphic" in2="effect2_dropShadow_36_3" result="shape"/>
<feColorMatrix in="SourceAlpha" type="matrix" values="0 0 0 0 0 0 0 0 0 0 0 0 0 0 0 0 0 0 127 0" result="hardAlpha"/>
<feOffset dx="-5" dy="5"/>
<feGaussianBlur stdDeviation="5"/>
<feComposite in2="hardAlpha" operator="arithmetic" k2="-1" k3="1"/>
<feColorMatrix type="matrix" values="0 0 0 0 1 0 0 0 0 1 0 0 0 0 1 0 0 0 0.4 0"/>
<feBlend mode="normal" in2="shape" result="effect3_innerShadow_36_3"/>
</filter>
<filter id="filter1_d_36_3" x="513.969" y="226.695" width="289.031" height="523.669" filterUnits="userSpaceOnUse" color-interpolation-filters="sRGB">
<feFlood flood-opacity="0" result="BackgroundImageFix"/>
<feColorMatrix in="SourceAlpha" type="matrix" values="0 0 0 0 0 0 0 0 0 0 0 0 0 0 0 0 0 0 127 0" result="hardAlpha"/>
<feOffset dy="4"/>
<feGaussianBlur stdDeviation="7.5"/>
<feComposite in2="hardAlpha" operator="out"/>
<feColorMatrix type="matrix" values="0 0 0 0 0.631373 0 0 0 0 0.4 0 0 0 0 1 0 0 0 1 0"/>
<feBlend mode="normal" in2="BackgroundImageFix" result="effect1_dropShadow_36_3"/>
<feBlend mode="normal" in="SourceGraphic" in2="effect1_dropShadow_36_3" result="shape"/>
</filter>
<linearGradient id="paint0_linear_36_3" x1="0" y1="0" x2="1024" y2="1024" gradientUnits="userSpaceOnUse">
<stop stop-color="#302157"/>
<stop offset="1" stop-color="#0C061A"/>
</linearGradient>
<linearGradient id="paint1_linear_36_3" x1="512" y1="0" x2="512" y2="1024" gradientUnits="userSpaceOnUse">
<stop stop-color="white" stop-opacity="0.2"/>
<stop offset="1" stop-color="#666666" stop-opacity="0"/>
</linearGradient>
</defs>
</svg>
